<?xml version="1.0" encoding="UTF-8" standalone="no"?>

<svg
   xmlns="http://www.w3.org/2000/svg"
   version="1.1"
   viewBox="0 0 24 24"
   style="enable-background:new 0 0 24 24;"
   xml:space="preserve">
<path
   style="fill:#b8b7b6;fill-opacity:0.50196081"
   d="M 18 5 L 9 6 L 9 7 L 9 9 L 9 10 L 9 15.498047 C 8.4548061 15.177735 7.7604403 15 7 15 C 6.228578 15 5.5232329 15.180592 4.9746094 15.509766 C 4.4259859 15.83894 4 16.360603 4 17 C 4 17.639397 4.4259859 18.16106 4.9746094 18.490234 C 5.5232329 18.819408 6.228578 19 7 19 C 7.771422 19 8.4767671 18.819408 9.0253906 18.490234 C 9.5740141 18.16106 10 17.639397 10 17 L 10 9.8886719 L 17 9.1113281 L 17 13.498047 C 16.454806 13.177735 15.76044 13 15 13 C 14.228578 13 13.523233 13.180592 12.974609 13.509766 C 12.425986 13.83894 12 14.360603 12 15 C 12 15.639397 12.425986 16.16106 12.974609 16.490234 C 13.523233 16.819408 14.228578 17 15 17 C 15.771422 17 16.476767 16.819408 17.025391 16.490234 C 17.574014 16.16106 18 15.639397 18 15 L 18 9 L 18 8 L 18 6 L 18 5 z M 17 6.1113281 L 17 8.1113281 L 10 8.8886719 L 10 6.8886719 L 17 6.1113281 z M 15 14 C 15.60929 14 16.153567 14.153467 16.509766 14.367188 C 16.865964 14.580906 17 14.81097 17 15 C 17 15.18903 16.865964 15.419094 16.509766 15.632812 C 16.153567 15.846533 15.60929 16 15 16 C 14.39071 16 13.846433 15.846533 13.490234 15.632812 C 13.134036 15.419094 13 15.18903 13 15 C 13 14.81097 13.134036 14.580906 13.490234 14.367188 C 13.846433 14.153467 14.39071 14 15 14 z M 7 16 C 7.6092899 16 8.1535671 16.153468 8.5097656 16.367188 C 8.8659641 16.580907 9 16.81097 9 17 C 9 17.18903 8.8659641 17.419093 8.5097656 17.632812 C 8.1535671 17.846532 7.6092899 18 7 18 C 6.3907101 18 5.8464329 17.846532 5.4902344 17.632812 C 5.1340359 17.419093 5 17.18903 5 17 C 5 16.81097 5.1340359 16.580907 5.4902344 16.367188 C 5.8464329 16.153468 6.3907101 16 7 16 z"
   />
</svg>