<?xml version="1.0" encoding="UTF-8" standalone="no"?>
<svg
   width="165"
   height="165"
   viewBox="0 0 165 165"
   fill="none"
   version="1.1"
   id="svg2"
   xmlns="http://www.w3.org/2000/svg"
   xmlns:svg="http://www.w3.org/2000/svg">
  <defs
     id="defs2" />
  <path
     id="path1"
     fill="black"
     d="M 74.818359 1.0820312 C 59.865359 2.4331412 45.517806 7.8704244 33.378906 16.865234 C 19.254106 27.331534 8.8655569 42.060306 3.7480469 58.878906 C -1.3694531 75.697406 -0.94621787 93.715691 4.9550781 110.27539 C 10.856328 126.83539 21.924991 141.06056 36.525391 150.85156 C 51.125891 160.64356 68.486375 165.4832 86.046875 164.6582 C 103.60748 163.8332 120.43669 157.38653 134.05469 146.26953 C 147.67269 135.15153 157.35669 119.95016 161.67969 102.91016 C 165.72869 86.947656 164.87267 70.163175 159.26367 54.734375 L 159.27734 54.869141 L 146.41797 65.207031 A 66.681 67.106628 0 0 1 148.87891 83.199219 A 66.681 67.106628 0 0 1 82.197266 150.30469 A 66.681 67.106628 0 0 1 15.515625 83.199219 A 66.681 67.106628 0 0 1 74.818359 16.623047 L 74.818359 1.0820312 z " />
  <path
     d="m 143.61,28.4102 0.087,0.218 -8.66004,13.75453 C 130.03809,34.968543 118.746,25.96657 110.077,22.209878 V 82.748 c 0,15.3977 -12.4821,27.88 -27.8797,27.88 -15.3977,0 -27.8799,-12.4823 -27.8799,-27.88 0,-15.3976 12.4822,-27.8799 27.8799,-27.8799 5.7706,0 11.1318,1.7533 15.5799,4.7561 V 2.22656 C 115.878,5.7081 131.861,15.1414 143.61,28.4102 Z"
     fill="black"
     id="path2" />
</svg>
